HIERARCHY
ROOT Hips
{
	OFFSET 0.000000 0.000000 0.000000
	CHANNELS 6 Xposition Yposition Zposition Zrotation Yrotation Xrotation 
	JOINT LHipJoint
	{
		OFFSET 0.000000 0.000000 0.000000
		CHANNELS 3 Zrotation Yrotation Xrotation
		JOINT LeftUpLeg
		{
			OFFSET 1.363060 -1.794630 0.839290
			CHANNELS 3 Zrotation Yrotation Xrotation
			JOINT LeftLeg
			{
				OFFSET 2.448110 -6.726130 0.000000
				CHANNELS 3 Zrotation Yrotation Xrotation
				JOINT LeftFoot
				{
					OFFSET 2.562200 -7.039590 0.000000
					CHANNELS 3 Zrotation Yrotation Xrotation
					JOINT LeftToeBase
					{
						OFFSET 0.157640 -0.433110 2.322550
						CHANNELS 3 Zrotation Yrotation Xrotation
						End Site
						{
							OFFSET 0.000000 0.000000 0.000000
						}
					}
				}
			}
		}
	}
	JOINT RHipJoint
	{
		OFFSET 0.000000 0.000000 0.000000
		CHANNELS 3 Zrotation Yrotation Xrotation
		JOINT RightUpLeg
		{
			OFFSET -1.305520 -1.794630 0.839290
			CHANNELS 3 Zrotation Yrotation Xrotation
			JOINT RightLeg
			{
				OFFSET -2.542530 -6.985550 0.000000
				CHANNELS 3 Zrotation Yrotation Xrotation
				JOINT RightFoot
				{
					OFFSET -2.568260 -7.056230 0.000000
					CHANNELS 3 Zrotation Yrotation Xrotation
					JOINT RightToeBase
					{
						OFFSET -0.164730 -0.452590 2.363150
						CHANNELS 3 Zrotation Yrotation Xrotation
						End Site
						{
							OFFSET 0.000000 0.000000 0.000000
						}
					}
				}
			}
		}
	}
	JOINT LowerBack
	{
		OFFSET 0.000000 0.000000 0.000000
		CHANNELS 3 Zrotation Yrotation Xrotation
		JOINT Spine
		{
			OFFSET 0.028270 2.035590 -0.193380
			CHANNELS 3 Zrotation Yrotation Xrotation
			JOINT Spine1
			{
				OFFSET 0.056720 2.048850 -0.042750
				CHANNELS 3 Zrotation Yrotation Xrotation
				JOINT Neck
				{
					OFFSET 0.000000 0.000000 0.000000
					CHANNELS 3 Zrotation Yrotation Xrotation
					JOINT Neck1
					{
						OFFSET -0.054170 1.746240 0.172020
						CHANNELS 3 Zrotation Yrotation Xrotation
						JOINT Head
						{
							OFFSET 0.104070 1.761360 -0.123970
							CHANNELS 3 Zrotation Yrotation Xrotation
							End Site
							{
								OFFSET 0.000000 0.000000 0.000000
							}
						}
					}
				}
				JOINT LeftShoulder
				{
					OFFSET 0.000000 0.000000 0.000000
					CHANNELS 3 Zrotation Yrotation Xrotation
					JOINT LeftArm
					{
						OFFSET 3.362410 1.200890 -0.311210
						CHANNELS 3 Zrotation Yrotation Xrotation
						JOINT LeftForeArm
						{
							OFFSET 4.983000 -0.000000 -0.000000
							CHANNELS 3 Zrotation Yrotation Xrotation
							JOINT LeftHand
							{
								OFFSET 3.483560 -0.000000 -0.000000
								CHANNELS 3 Zrotation Yrotation Xrotation
								JOINT LeftFingerBase
								{
									OFFSET 0.000000 0.000000 0.000000
									CHANNELS 3 Zrotation Yrotation Xrotation
									JOINT LeftHandIndex1
									{
										OFFSET 0.715260 -0.000000 -0.000000
										CHANNELS 3 Zrotation Yrotation Xrotation
										End Site
										{
											OFFSET 0.000000 0.000000 0.000000
										}
									}
								}
								JOINT LThumb
								{
									OFFSET 0.000000 0.000000 0.000000
									CHANNELS 3 Zrotation Yrotation Xrotation
									End Site
									{
										OFFSET 0.000000 0.000000 0.000000
									}
								}
							}
						}
					}
				}
				JOINT RightShoulder
				{
					OFFSET 0.000000 0.000000 0.000000
					CHANNELS 3 Zrotation Yrotation Xrotation
					JOINT RightArm
					{
						OFFSET -3.136600 1.374050 -0.404650
						CHANNELS 3 Zrotation Yrotation Xrotation
						JOINT RightForeArm
						{
							OFFSET -5.241900 -0.000000 -0.000000
							CHANNELS 3 Zrotation Yrotation Xrotation
							JOINT RightHand
							{
								OFFSET -3.444170 -0.000000 -0.000000
								CHANNELS 3 Zrotation Yrotation Xrotation
								JOINT RightFingerBase
								{
									OFFSET 0.000000 0.000000 0.000000
									CHANNELS 3 Zrotation Yrotation Xrotation
									JOINT RightHandIndex1
									{
										OFFSET -0.622530 -0.000000 -0.000000
										CHANNELS 3 Zrotation Yrotation Xrotation
										End Site
										{
											OFFSET 0.000000 0.000000 0.000000
										}
									}
								}
								JOINT RThumb
								{
									OFFSET 0.000000 0.000000 0.000000
									CHANNELS 3 Zrotation Yrotation Xrotation
									End Site
									{
										OFFSET 0.000000 0.000000 0.000000
									}
								}
							}
						}
					}
				}
			}
		}
	}
}
MOTION
Frames: 7
Frame Time: 0.008333
-11.614226 17.898767 -11.922941 -179.738780 11.138199 178.455898 -2.799834 0.798825 1.408166 -9.863898 -8.944524 -19.260140 -0.361275 6.769914 19.928740 1.154096 -9.376828 12.767568 0.347000 -3.784800 -10.472000 0.662976 -1.338026 1.622328 20.668210 1.065833 5.906088 -1.436619 -7.492923 23.504306 -1.252538 6.314162 -2.323419 -0.031200 1.139600 -3.133100 3.641211 -2.474596 10.154709 4.232276 -2.241728 2.442150 3.344728 -0.969047 -3.769625 -15.650570 -27.410813 9.959446 12.523884 -37.797630 23.625347 2.748700 -16.495700 15.923600 -6.315119 -0.003579 -1.415425 -83.189686 10.511133 13.371800 13.628346 -19.705250 -2.698345 -1.345776 -2.421242 5.815854 19.060889 24.018518 9.317700 -7.125000 0.000000 0.000000 -10.994900 57.645100 -3.431500 5.592511 1.819392 -0.207080 82.197974 15.370858 26.260188 -17.130079 24.891206 -4.025542 0.351326 -0.023488 6.053223 -14.637897 5.214675 -1.388100 7.125000 0.000000 0.000000 8.715700 -24.606400 4.343300 
-11.605523 17.888263 -11.767483 -179.937227 11.602768 178.352628 -2.781891 0.785033 1.420068 -9.827754 -8.685518 -19.357119 -0.258801 6.959413 20.495796 1.226567 -11.574247 10.690528 0.587400 -4.907300 -13.644400 0.665254 -1.323302 1.605199 20.687466 1.546624 5.440656 -1.481464 -7.616032 23.851414 -1.235339 6.048190 -2.755539 -0.050700 1.453100 -3.996400 3.345830 -2.377763 10.373102 4.195149 -2.134262 2.514563 3.409914 -0.917424 -3.770023 -15.616493 -27.281836 9.832571 12.486744 -37.614597 23.705991 2.763700 -16.406600 15.929400 -6.340792 -0.020047 -1.402260 -83.299815 10.154951 12.950560 13.465805 -19.437818 -2.621041 -1.374077 -2.379824 6.191360 19.130083 23.656890 9.232700 -7.125000 0.000000 0.000000 -10.704700 57.267300 -3.241700 5.602567 1.827460 -0.209031 82.190334 15.303832 26.656343 -17.133369 24.893054 -4.027399 0.356993 -0.027875 5.991171 -14.813392 5.353475 -1.444200 7.125000 0.000000 0.000000 8.573500 -24.456000 4.301100 
-11.600021 17.884062 -11.619228 179.974327 12.015700 178.195713 -2.762373 0.787296 1.434629 -9.755168 -8.370969 -19.391156 -0.094460 7.273969 21.367146 1.313604 -13.120209 7.350289 1.377500 -7.426900 -20.986500 0.663662 -1.310370 1.585421 20.776811 1.995665 5.041126 -1.528625 -7.732771 24.190553 -1.241552 6.028284 -2.929301 -0.026400 1.048400 -2.882100 3.229000 -2.338351 10.594813 4.159562 -2.071035 2.621735 3.380900 -0.887121 -3.711555 -15.572150 -27.192034 9.625171 12.440567 -37.499504 23.839697 2.745700 -16.333900 15.992400 -6.368197 -0.037049 -1.387912 -83.361567 9.768582 12.690958 13.316319 -19.189573 -2.551061 -1.408602 -2.338287 6.397550 19.358154 23.267134 9.219100 -7.125000 0.000000 0.000000 -10.222600 56.892900 -3.000900 5.611002 1.836956 -0.208125 82.161242 15.315607 27.072299 -17.112023 24.871110 -4.021754 0.350726 -0.034417 5.909108 -14.634045 5.607120 -1.495400 7.125000 0.000000 0.000000 8.697100 -24.193400 4.417900 
-11.597520 17.887863 -11.475775 179.854276 12.229021 178.014598 -2.739752 0.806414 1.456104 -9.792015 -8.199705 -19.260833 0.069303 7.603003 22.317357 1.349573 -13.396170 5.810361 1.513900 -7.770300 -22.018600 0.660928 -1.303435 1.566603 20.815315 2.324117 4.602914 -1.579913 -7.856775 24.549804 -1.241927 5.968023 -3.102635 -0.005900 0.496200 -1.363500 3.168401 -2.347411 10.827214 4.108898 -2.065102 2.701544 3.304271 -0.884274 -3.701061 -15.444746 -27.145548 9.334265 12.199893 -37.421521 24.110042 2.636100 -16.263500 16.072800 -6.387622 -0.053297 -1.380826 -83.481208 9.520088 12.535689 13.268712 -19.095668 -2.525381 -1.417774 -2.347263 6.558173 19.322950 23.434320 9.261400 -7.125000 0.000000 0.000000 -10.345700 57.067100 -3.081200 5.610726 1.837629 -0.212033 82.147105 15.236333 27.244135 -17.133280 24.909145 -4.037153 0.335967 -0.034940 5.939998 -14.203471 5.706020 -1.475100 7.125000 0.000000 0.000000 9.021000 -24.102000 4.605600 
-11.597420 17.890064 -11.334122 179.654146 12.380366 177.789590 -2.697290 0.831242 1.476908 -9.981394 -8.102295 -19.082018 0.244448 7.978314 23.476788 1.252350 -12.474842 6.919368 0.431200 -4.214100 -11.679900 0.652137 -1.302057 1.549758 20.811514 2.697825 4.244681 -1.626967 -7.978386 24.894267 -1.210925 5.651860 -3.430119 -0.001000 0.205400 -0.564200 3.045587 -2.369218 11.013156 4.051030 -2.090310 2.778866 3.247522 -0.897735 -3.670983 -15.356359 -27.045621 9.235589 12.152325 -37.273030 24.198525 2.640500 -16.183000 16.068400 -6.401854 -0.065117 -1.375408 -83.602556 9.329630 12.722976 13.247566 -19.042260 -2.513102 -1.414237 -2.384622 6.277357 19.306587 23.774260 9.376300 -7.125000 0.000000 0.000000 -10.540800 57.437400 -3.234700 5.611104 1.837030 -0.214828 82.127787 15.101651 27.366457 -17.136872 24.915837 -4.040237 0.334808 -0.032513 6.011215 -14.163676 5.637953 -1.452600 7.125000 0.000000 0.000000 9.055200 -24.175100 4.608000 
-11.597720 17.892065 -11.194870 179.362255 12.479918 177.478002 -2.673128 0.860784 1.500441 -10.321318 -7.833655 -18.899053 0.510278 8.481349 24.955713 1.262431 -11.983305 4.366666 1.178900 -6.891300 -19.393600 0.648415 -1.302559 1.535897 20.665983 2.903277 3.937167 -1.674354 -8.093440 25.221208 -1.191599 5.428870 -3.708606 -0.000100 -0.052100 0.143200 2.862476 -2.396558 11.189697 3.971195 -2.131818 2.869762 3.188185 -0.921299 -3.615268 -15.541698 -26.900036 9.430674 12.454706 -37.105697 24.066297 2.826500 -16.132900 16.065500 -6.427439 -0.071168 -1.359849 -83.626755 9.032295 13.046747 13.087850 -18.777131 -2.443949 -1.429352 -2.365325 6.139093 19.418785 23.510653 9.348600 -7.125000 0.000000 0.000000 -10.255200 57.177600 -3.081300 5.613004 1.849160 -0.212715 82.066691 14.898231 27.409039 -17.166396 24.961591 -4.055926 0.333302 -0.036447 5.957024 -14.132066 5.790113 -1.489300 7.125000 0.000000 0.000000 9.070900 -24.016400 4.649900 
-11.597820 17.899568 -11.058719 179.046237 12.443176 177.166317 -2.627747 0.889674 1.517284 -10.735900 -7.666473 -18.733948 0.816558 9.038735 26.679440 1.160583 -10.827929 3.938579 0.819500 -5.776400 -16.137000 0.635773 -1.307667 1.528355 20.470016 2.918894 3.567022 -1.720960 -8.197282 25.524963 -1.176670 5.300341 -3.786503 -0.000000 0.003200 -0.008700 2.610331 -2.470094 11.429536 3.928938 -2.243824 2.873875 3.252288 -0.977418 -3.735207 -15.869693 -26.785160 9.676134 12.470246 -36.962553 24.121643 2.920900 -16.115800 16.106500 -6.444796 -0.073405 -1.351753 -83.800221 8.956632 13.281321 12.991042 -18.607201 -2.401464 -1.449804 -2.340976 6.209100 19.567026 23.248034 9.335900 -7.125000 0.000000 0.000000 -9.939300 56.925500 -2.924400 5.607374 1.851497 -0.218959 81.884222 14.449181 27.499163 -17.265835 25.098345 -4.105096 0.328479 -0.033214 5.716952 -13.973896 5.814995 -1.477800 7.125000 0.000000 0.000000 9.190200 -23.996800 4.716800 
